<svg xmlns="http://www.w3.org/2000/svg" viewBox="0 0 266.2 248.88"><defs><style>.cls-1{fill:#0e55a1;}</style></defs><title>Zasób 1</title><g id="Warstwa_2" data-name="Warstwa 2"><g id="Tryb_izolacji" data-name="Tryb izolacji"><path class="cls-1" d="M159.87,71.4h1.45c3.29-.09,19.39-1.19,33.9-28.09,16.27-30.16,29.57-46.83,71-42.46L266,.9A53.82,53.82,0,0,0,225.1,30.35c-11.45,21.2-25.29,38.07-51.65,41.3a40.35,40.35,0,0,0,16.84.6c2.75-.4,8.62.43,10,3.8-8.5-.6-32.71,5.07-42.52,9.72-7.77,3.8-26.16,13.12-42.41,3.4,3.46-.43,22.93-3.32,31.92-10.29C132.12,79,107,75.06,88.24,61S24.15,4.42,0,1.24C98.28-10.92,101.71,70.15,159.87,71.4ZM16.3,247.57v-25.2H20l7.48,20,7.11-20h3.71v25.94H35.38V228.52l-7,19.79h-1.7l-7.46-19.84v19.84H16.3Zm182.69-86H203l-4.71,6.69h-3.57l3.77-6.69ZM70.21,143.23v1H16.3v-1Zm179.69,0v1H196v-1ZM78.6,149.75l.94-.79a6,6,0,0,0,1.81,3.23,4.86,4.86,0,0,0,3.32,1.13,4.6,4.6,0,0,0,3.15-1.08A3.56,3.56,0,0,0,89,149.47a3.92,3.92,0,0,0-.31-1.56,2.68,2.68,0,0,0-.88-1.13,12.39,12.39,0,0,0-3-1.56l-.65-.26a10.19,10.19,0,0,1-3.51-2.13,3.88,3.88,0,0,1-1-2.66,3.71,3.71,0,0,1,1.25-2.89,4.88,4.88,0,0,1,3.32-1.11,5.89,5.89,0,0,1,3,.79,7.13,7.13,0,0,1,2.3,2.38l-.65,1a7.57,7.57,0,0,0-2.13-2.41,4.37,4.37,0,0,0-2.55-.77,3.75,3.75,0,0,0-2.47.82,2.63,2.63,0,0,0-1,2.1,2.86,2.86,0,0,0,.74,2,10.8,10.8,0,0,0,3.2,1.81l.57.26A12.64,12.64,0,0,1,88.72,146a4.42,4.42,0,0,1,1.08,1.5,5,5,0,0,1,.37,1.9A4.59,4.59,0,0,1,88.64,153a5.53,5.53,0,0,1-3.94,1.39,6,6,0,0,1-3.83-1.19A6.67,6.67,0,0,1,78.6,149.75ZM100,146.43a12.66,12.66,0,0,1-3,1,9.48,9.48,0,0,0-2.15.62,2.39,2.39,0,0,0-1,1,3.41,3.41,0,0,0-.31,1.53,2.76,2.76,0,0,0,.68,2,2.57,2.57,0,0,0,1.93.71,4,4,0,0,0,2.81-1,3.4,3.4,0,0,0,1.08-2.61Zm0,5.81a7.7,7.7,0,0,1-1.87,1.56,4.14,4.14,0,0,1-2,.51,3.52,3.52,0,0,1-2.64-1,3.68,3.68,0,0,1-1-2.66,4.13,4.13,0,0,1,.57-2.21,3.8,3.8,0,0,1,1.67-1.36,16.35,16.35,0,0,1,2.44-.65A8.24,8.24,0,0,0,100,145.3V145a2.12,2.12,0,0,0-.74-1.76,3.14,3.14,0,0,0-2.1-.62,3.67,3.67,0,0,0-2.13.62A4.25,4.25,0,0,0,93.54,145l-.71-.6a5,5,0,0,1,1.73-2.1,4.45,4.45,0,0,1,2.52-.71,3.86,3.86,0,0,1,2.92,1,4,4,0,0,1,1,2.95v6a3.44,3.44,0,0,0,.2,1.5,1,1,0,0,0,.82.31h.2v.88l-.34.11-.26,0a1.47,1.47,0,0,1-1.16-.54A2.72,2.72,0,0,1,100,152.24ZM113.58,154h-1V146.6a5.6,5.6,0,0,0-.62-3.09,2.47,2.47,0,0,0-2.15-.94,3.29,3.29,0,0,0-2.72,1.3,5.27,5.27,0,0,0-1,3.43V154h-1v-12h1v2.49a4.92,4.92,0,0,1,1.62-2.13,3.58,3.58,0,0,1,2.24-.71,3.34,3.34,0,0,1,2.81,1.16,6,6,0,0,1,.91,3.6Zm10.6-7.54a12,12,0,0,1-3,1,9,9,0,0,0-2.15.62,2.39,2.39,0,0,0-1,1,3.07,3.07,0,0,0-.31,1.53,2.76,2.76,0,0,0,.68,2,2.57,2.57,0,0,0,1.93.71,3.86,3.86,0,0,0,2.78-1,3.3,3.3,0,0,0,1.08-2.61Zm0,5.81a7.6,7.6,0,0,1-1.84,1.56,4.22,4.22,0,0,1-2,.51,3.48,3.48,0,0,1-2.64-1,3.57,3.57,0,0,1-1-2.66,3.89,3.89,0,0,1,.57-2.21,3.64,3.64,0,0,1,1.67-1.36,15.37,15.37,0,0,1,2.44-.65,7.83,7.83,0,0,0,2.78-1.11.17.17,0,0,0,0-.11V145a2.21,2.21,0,0,0-.74-1.76,3.19,3.19,0,0,0-2.1-.62,3.67,3.67,0,0,0-2.13.62,4.05,4.05,0,0,0-1.47,1.79l-.74-.6a5,5,0,0,1,1.76-2.1,4.39,4.39,0,0,1,2.52-.71,3.9,3.9,0,0,1,2.92,1,4,4,0,0,1,.94,2.95v6a3.31,3.31,0,0,0,.23,1.5.93.93,0,0,0,.82.31h.2v.88l-.34.11-.26,0a1.43,1.43,0,0,1-1.16-.54A2.72,2.72,0,0,1,124.19,152.24Zm3.26-9.27v-1h2.1v-4.48l1-.77v5.24h2.49v1h-2.49v8.53a2.26,2.26,0,0,0,.31,1.39,1.57,1.57,0,0,0,1.22.37,3.43,3.43,0,0,0,.54,0,3.65,3.65,0,0,0,.54-.11v1a4.4,4.4,0,0,1-.6.11,5.5,5.5,0,0,1-.68.06,2.28,2.28,0,0,1-1.81-.65,3.46,3.46,0,0,1-.54-2.15V143Zm12.39-.4a3.2,3.2,0,0,0-2.72,1.47,6.76,6.76,0,0,0-1,3.88,6.63,6.63,0,0,0,1,3.88,3.28,3.28,0,0,0,5.47,0,6.43,6.43,0,0,0,1-3.88,6.55,6.55,0,0,0-1-3.88A3.22,3.22,0,0,0,139.83,142.58Zm0-1a4.16,4.16,0,0,1,3.46,1.76,8.43,8.43,0,0,1,0,9.18,4.11,4.11,0,0,1-3.46,1.79,4.17,4.17,0,0,1-3.49-1.76,8.63,8.63,0,0,1,0-9.21A4.17,4.17,0,0,1,139.86,141.59ZM147.94,154v-12h1V145h.17a7.35,7.35,0,0,1,1.45-2.61,2.58,2.58,0,0,1,1.87-.82,2.92,2.92,0,0,1,.48,0,3.43,3.43,0,0,1,.51.14V143a2.34,2.34,0,0,0-.54-.17,3.12,3.12,0,0,0-.51-.06,2.82,2.82,0,0,0-2.49,1.79,10.3,10.3,0,0,0-.94,4.76V154Zm7.8-14.71V137h1v2.24Zm0,14.71v-12h1v12Zm5.27-4.42v-7.63h1v7.37a5.62,5.62,0,0,0,.62,3.06,2.35,2.35,0,0,0,2.07.94,3.42,3.42,0,0,0,2.81-1.3,5.31,5.31,0,0,0,1.08-3.46v-6.6h1v12h-1v-2.49A5.6,5.6,0,0,1,167,153.6a3.76,3.76,0,0,1-2.24.71,3.41,3.41,0,0,1-2.81-1.16A6,6,0,0,1,161,149.55Zm13.72-5.13a6.13,6.13,0,0,1,1.59-2.13,3.12,3.12,0,0,1,2-.71,3.18,3.18,0,0,1,2.21.77,3.82,3.82,0,0,1,1.11,2.27,5.84,5.84,0,0,1,1.67-2.27,3.36,3.36,0,0,1,2.18-.77,2.83,2.83,0,0,1,2.49,1.19,6.15,6.15,0,0,1,.85,3.57V154h-1V146.6a6.07,6.07,0,0,0-.6-3.06,2,2,0,0,0-1.84-1,3.17,3.17,0,0,0-2.58,1.36,5.34,5.34,0,0,0-1.08,3.37V154h-1V146.6a6.07,6.07,0,0,0-.6-3.06,2,2,0,0,0-1.84-1,3,3,0,0,0-2.55,1.33,5.35,5.35,0,0,0-1,3.4V154h-1v-12h1ZM24.29,192.69H36.43l-6-16.16Zm-7.6,11,12.19-32.12H32l12.3,33.14H40.85l-3.17-8.56H23l-3.29,8.56H16.3Zm31.66-32.12h2.72v21.09a15.6,15.6,0,0,0,.51,4.25,7.45,7.45,0,0,0,1.5,2.86,6.06,6.06,0,0,0,2.47,1.67,10.77,10.77,0,0,0,3.66.57,10.09,10.09,0,0,0,3.66-.6,6,6,0,0,0,2.47-1.79,8.39,8.39,0,0,0,1.47-3.12,18.64,18.64,0,0,0,.51-4.65v-20.3h3.29v20.18a22.63,22.63,0,0,1-.71,5.87,11.58,11.58,0,0,1-2.13,4.31,9.37,9.37,0,0,1-3.69,2.64,13.68,13.68,0,0,1-5,.85,14.74,14.74,0,0,1-5-.79,9,9,0,0,1-3.63-2.41,10.34,10.34,0,0,1-2.15-4,19.56,19.56,0,0,1-.68-5.44V171.55ZM100,198.62a12.19,12.19,0,0,1-1.64,2.86,10.2,10.2,0,0,1-2.27,2.15,9.77,9.77,0,0,1-2.81,1.3,11.66,11.66,0,0,1-3.2.45,11.92,11.92,0,0,1-9.89-4.62,15.86,15.86,0,0,1-2.66-5.41,26.42,26.42,0,0,1-.88-7c0-5.3,1.19-9.52,3.51-12.67a11.3,11.3,0,0,1,9.58-4.85,12.42,12.42,0,0,1,3.34.43,9.33,9.33,0,0,1,2.78,1.33,9.07,9.07,0,0,1,2.24,2.18,16.14,16.14,0,0,1,1.64,3l.17.45-2.35,2.64-.48-1.08a14,14,0,0,0-1.42-2.52,7.5,7.5,0,0,0-1.59-1.67,6,6,0,0,0-1.84-1,9,9,0,0,0-6.29.6A8.66,8.66,0,0,0,82.89,178a13.16,13.16,0,0,0-2,4.42,23.24,23.24,0,0,0-.68,5.9,21.81,21.81,0,0,0,.68,5.7,12.82,12.82,0,0,0,2,4.31,8.25,8.25,0,0,0,6.94,3.57,9.36,9.36,0,0,0,2.27-.28,6.41,6.41,0,0,0,1.84-.82,7,7,0,0,0,1.5-1.39,7.8,7.8,0,0,0,1-1.79v-6H86.68v-3.74h13.38v10.66Zm7.43-27.07h2.72v21.09a15.74,15.74,0,0,0,.51,4.25,7.86,7.86,0,0,0,1.5,2.86,6.06,6.06,0,0,0,2.47,1.67,10.77,10.77,0,0,0,3.66.57,10.25,10.25,0,0,0,3.69-.6,5.76,5.76,0,0,0,2.44-1.79,8,8,0,0,0,1.47-3.12,17.31,17.31,0,0,0,.54-4.65v-20.3h3.26v20.18a21.47,21.47,0,0,1-.71,5.87,10.78,10.78,0,0,1-2.13,4.31,9.27,9.27,0,0,1-3.66,2.64,13.84,13.84,0,0,1-5,.85,14.56,14.56,0,0,1-5-.79,8.88,8.88,0,0,1-3.66-2.41,10.34,10.34,0,0,1-2.15-4,19.56,19.56,0,0,1-.68-5.44V171.55ZM135,195.67l2.64-2.21.28,1.16a13,13,0,0,0,1.22,3.23,8.75,8.75,0,0,0,1.84,2.3,7.46,7.46,0,0,0,2.44,1.39,9.63,9.63,0,0,0,3.06.45,8.87,8.87,0,0,0,3-.45,6.25,6.25,0,0,0,2.27-1.3,5.77,5.77,0,0,0,1.45-2,6.46,6.46,0,0,0,.48-2.52,9.73,9.73,0,0,0-.11-1.33,7.31,7.31,0,0,0-.37-1.19,5.5,5.5,0,0,0-.6-1,4.21,4.21,0,0,0-.79-.79h0a11.48,11.48,0,0,0-2.07-1.3,27.85,27.85,0,0,0-3.15-1.42c-.34-.11-.91-.37-1.25-.51a28.05,28.05,0,0,1-4-2,12.37,12.37,0,0,1-2.64-2.07,6.94,6.94,0,0,1-1.47-2.44,7.94,7.94,0,0,1-.51-2.89,8.12,8.12,0,0,1,.65-3.23,7.81,7.81,0,0,1,1.87-2.58,8.47,8.47,0,0,1,2.92-1.64,11.16,11.16,0,0,1,3.6-.54,12.59,12.59,0,0,1,3.15.4,10.41,10.41,0,0,1,2.78,1.13A11.65,11.65,0,0,1,154,174.3a14,14,0,0,1,2,2.66l.26.43-2.13,3.15-.6-1a17.06,17.06,0,0,0-1.81-2.52,9.62,9.62,0,0,0-1.81-1.64,6.23,6.23,0,0,0-2-.94,8.27,8.27,0,0,0-2.27-.31,6.88,6.88,0,0,0-2.24.34,5.13,5.13,0,0,0-1.76,1,4.2,4.2,0,0,0-1.13,1.45,4.6,4.6,0,0,0-.34,1.81,5.36,5.36,0,0,0,.26,1.7,4.44,4.44,0,0,0,.85,1.33,9.2,9.2,0,0,0,2,1.42,32.65,32.65,0,0,0,3.66,1.73l1,.43c1.45.62,2.72,1.19,3.8,1.79a15.13,15.13,0,0,1,2.64,1.81h0a7,7,0,0,1,1.22,1.36,8,8,0,0,1,.91,1.59,9,9,0,0,1,.54,1.81,10.89,10.89,0,0,1,.2,2,9.83,9.83,0,0,1-.77,3.91,9,9,0,0,1-2.24,3.15,10,10,0,0,1-3.43,2,12.91,12.91,0,0,1-4.28.68,14.09,14.09,0,0,1-4-.57,10.35,10.35,0,0,1-3.37-1.76,11.33,11.33,0,0,1-2.64-2.81,15.05,15.05,0,0,1-1.73-3.8l-.14-.48Zm33.53,8.25V175.09h-9v-3.54h21.6v3.54h-9v29.59h-3.54Zm37.56-15.79a21.4,21.4,0,0,0-.71-5.61,14.5,14.5,0,0,0-2.1-4.42,9.63,9.63,0,0,0-3.12-2.81,8.18,8.18,0,0,0-7.6,0,9.55,9.55,0,0,0-3.09,2.81,13.82,13.82,0,0,0-2.07,4.42,22.58,22.58,0,0,0,0,11.23,13.37,13.37,0,0,0,2.07,4.39,9.28,9.28,0,0,0,3.09,2.81,8.18,8.18,0,0,0,7.6,0,9.35,9.35,0,0,0,3.12-2.81,14.66,14.66,0,0,0,2.1-4.39A21.4,21.4,0,0,0,206.11,188.13Zm-9.72-17.29a13.41,13.41,0,0,1,2.64.28,11.44,11.44,0,0,1,2.44.88,13.26,13.26,0,0,1,2.21,1.42,15.48,15.48,0,0,1,1.93,1.93v0a14.11,14.11,0,0,1,1.73,2.64,16.52,16.52,0,0,1,1.28,3.06,21.26,21.26,0,0,1,.74,3.4,25.54,25.54,0,0,1,.26,3.66,25.94,25.94,0,0,1-.26,3.69,22.31,22.31,0,0,1-.74,3.43,17.08,17.08,0,0,1-1.28,3,14.11,14.11,0,0,1-1.73,2.64,14,14,0,0,1-2,1.93,11.16,11.16,0,0,1-2.21,1.39,10.43,10.43,0,0,1-2.44.88,13.12,13.12,0,0,1-2.61.28,11.32,11.32,0,0,1-2.61-.31,9.22,9.22,0,0,1-2.44-.85,13.08,13.08,0,0,1-2.21-1.39,15.48,15.48,0,0,1-1.93-1.93h0a15.48,15.48,0,0,1-1.76-2.66,19.41,19.41,0,0,1-1.25-3,21.27,21.27,0,0,1-.77-3.4,26.74,26.74,0,0,1,0-7.37,21.62,21.62,0,0,1,.77-3.43,19.41,19.41,0,0,1,1.25-3,18.54,18.54,0,0,1,1.76-2.64,12.54,12.54,0,0,1,2-1.93,11.67,11.67,0,0,1,2.21-1.42,10.43,10.43,0,0,1,2.44-.88A11.07,11.07,0,0,1,196.38,170.84Zm25.09,33.28-8.53-32.57h3.32l6.92,26.33L230,171.55H233l6.94,26.31,6.75-26.31h3.26l-8.48,33.14h-3.09l-6.86-26.11-6.86,26.11h-3ZM47.08,247.57v-25.2H61.94l-1.36,3H50v8h9.72v3H50v8.93H61l.79,3H47.08Zm29.57-22.17H71.94v19.9h4.59a10,10,0,0,0,3.6-.62,6.71,6.71,0,0,0,2.61-1.79,8,8,0,0,0,1.62-2.95,13.91,13.91,0,0,0,.57-4.14,18.87,18.87,0,0,0-.54-4.65,9.28,9.28,0,0,0-1.56-3.23,6.61,6.61,0,0,0-2.52-1.87A9.68,9.68,0,0,0,76.65,225.41Zm.17-3c3.57,0,6.35,1.16,8.28,3.51a11.67,11.67,0,0,1,2.15,4.22A19.65,19.65,0,0,1,88,235.7a17.49,17.49,0,0,1-.74,5.24,10.84,10.84,0,0,1-2.3,4,9.94,9.94,0,0,1-3.71,2.52,13.57,13.57,0,0,1-4.85.82H69V222.37Zm18.54,25.2v-25.2h3v25.94h-3Zm29.4-5a13.21,13.21,0,0,1-1.59,2.72,9.37,9.37,0,0,1-2,2,8.07,8.07,0,0,1-2.44,1.16,10.28,10.28,0,0,1-2.86.4,9.38,9.38,0,0,1-4.25-.94,8.46,8.46,0,0,1-3.2-2.75,13.23,13.23,0,0,1-2-4.34,22.28,22.28,0,0,1-.62-5.58,20.47,20.47,0,0,1,.65-5.5,12.42,12.42,0,0,1,2-4.28,9,9,0,0,1,3.26-2.72,9.58,9.58,0,0,1,4.28-.91,9.26,9.26,0,0,1,2.55.31,7.08,7.08,0,0,1,2.21,1,7.54,7.54,0,0,1,1.87,1.59,12,12,0,0,1,1.53,2.24l.23.43-2,2.3-.48-.91a11,11,0,0,0-1.25-1.79,7.78,7.78,0,0,0-1.36-1.22,6.35,6.35,0,0,0-1.53-.74,5.67,5.67,0,0,0-1.73-.23,6.34,6.34,0,0,0-3,.65,5.88,5.88,0,0,0-2.24,2,9.57,9.57,0,0,0-1.45,3.32,18.64,18.64,0,0,0-.51,4.59,18.4,18.4,0,0,0,.51,4.56,9.89,9.89,0,0,0,1.5,3.32,6,6,0,0,0,2.27,2,6.79,6.79,0,0,0,3.09.68,5.93,5.93,0,0,0,1.9-.31,5.43,5.43,0,0,0,1.64-.88,7.53,7.53,0,0,0,1.45-1.53,13.59,13.59,0,0,0,1.22-2.21l.45-1,2.07,2.32Zm10-3.86h9l-4.48-12Zm-6.24,8.56L138,222.37h2.61l9.61,25.94h-3l-2.44-6.63H133.63l-2.52,6.63h-2.95Zm27.27.26v-25.2h3v22.93h10v3h-13Zm29-6.49,2.21-1.87.28,1.13a9.71,9.71,0,0,0,.94,2.47,7,7,0,0,0,1.39,1.73,5.66,5.66,0,0,0,1.84,1,7.42,7.42,0,0,0,2.32.34,6.76,6.76,0,0,0,2.24-.34,5,5,0,0,0,1.7-1,4.22,4.22,0,0,0,1.08-1.5,4.54,4.54,0,0,0,.37-1.9,5.62,5.62,0,0,0-.09-1,4,4,0,0,0-.28-.88,3.13,3.13,0,0,0-.43-.74,3,3,0,0,0-.6-.6h0a10.44,10.44,0,0,0-1.59-1c-.71-.37-1.53-.74-2.44-1.11l-1-.37a24.67,24.67,0,0,1-3.12-1.53,9.48,9.48,0,0,1-2.1-1.64,5.84,5.84,0,0,1-1.16-1.93,6.73,6.73,0,0,1-.4-2.3,6.21,6.21,0,0,1,.51-2.55,5.54,5.54,0,0,1,1.5-2,6.14,6.14,0,0,1,2.3-1.3,9,9,0,0,1,2.83-.43,9.81,9.81,0,0,1,2.47.28,8.26,8.26,0,0,1,2.18.91,9.58,9.58,0,0,1,1.9,1.53,12,12,0,0,1,1.56,2.07l.26.4-1.84,2.72-.57-1a14.17,14.17,0,0,0-1.39-1.93,7,7,0,0,0-1.39-1.25,5.45,5.45,0,0,0-1.47-.71,6.33,6.33,0,0,0-1.7-.23,5.36,5.36,0,0,0-1.7.26,4,4,0,0,0-1.3.74,3.13,3.13,0,0,0-.82,1,3.43,3.43,0,0,0-.26,1.36,3.49,3.49,0,0,0,.2,1.25,2.8,2.8,0,0,0,.62,1,6.59,6.59,0,0,0,1.47,1.08,27,27,0,0,0,2.81,1.33l.79.34a28.54,28.54,0,0,1,2.92,1.39,10.88,10.88,0,0,1,2.07,1.39h0a7.09,7.09,0,0,1,1,1.11,5.94,5.94,0,0,1,.71,1.25,6.27,6.27,0,0,1,.43,1.42,7.1,7.1,0,0,1,.17,1.56,7.9,7.9,0,0,1-.6,3.09,6.88,6.88,0,0,1-1.79,2.47,7.06,7.06,0,0,1-2.69,1.62,9.79,9.79,0,0,1-3.37.54,9.23,9.23,0,0,1-5.81-1.81,9.78,9.78,0,0,1-2.07-2.24,11.06,11.06,0,0,1-1.36-3l-.14-.45ZM212.54,235h5.39a5.1,5.1,0,0,0,3.69-1.19,4.12,4.12,0,0,0,.88-1.45,5.94,5.94,0,0,0,.31-2.1,6.17,6.17,0,0,0-.31-2.15,3.6,3.6,0,0,0-.91-1.45,4,4,0,0,0-1.56-.91,7.49,7.49,0,0,0-2.24-.31h-5.24Zm-2.95,12.61v-25.2h7.68a11.84,11.84,0,0,1,3.63.48,7,7,0,0,1,2.72,1.47,6.42,6.42,0,0,1,1.7,2.49,9.92,9.92,0,0,1,.54,3.32,8.83,8.83,0,0,1-.54,3.2,6.93,6.93,0,0,1-1.59,2.52,6.59,6.59,0,0,1-2.49,1.59,9.16,9.16,0,0,1-3.15.51h-5.56v10.35h-2.95Zm24.83-8.82h9l-4.48-12Zm-6.21,8.56,9.44-24.94h2.64l9.61,25.94h-3l-2.44-6.63H233.32l-2.55,6.63h-2.95Z"/></g></g></svg>